<?xml version="1.0" encoding="UTF-8"?>
<!DOCTYPE svg PUBLIC "-//W3C//DTD SVG 1.1//EN" "http://www.w3.org/Graphics/SVG/1.1/DTD/svg11.dtd">
<svg xmlns="http://www.w3.org/2000/svg" version="1.1" width="1024px" height="1024px" style="shape-rendering:geometricPrecision; text-rendering:geometricPrecision; image-rendering:optimizeQuality; fill-rule:evenodd; clip-rule:evenodd" xmlns:xlink="http://www.w3.org/1999/xlink">
<g><path style="opacity:1" fill="#ceae32" d="M 798.5,394.5 C 797.448,394.351 796.448,394.517 795.5,395C 701.124,450.962 606.457,506.462 511.5,561.5C 415.784,506.315 320.451,450.648 225.5,394.5C 224.833,395.5 224.167,396.5 223.5,397.5C 222.889,394.039 224.056,391.372 227,389.5C 321.706,295.795 416.373,201.461 511,106.5C 607.088,202.421 702.921,298.421 798.5,394.5 Z M 544.5,189.5 C 547.5,193.167 550.833,196.5 554.5,199.5C 578.806,223.473 603.14,247.473 627.5,271.5C 664.833,309.5 702.5,347.167 740.5,384.5C 740.5,385.167 740.833,385.5 741.5,385.5C 741.953,386.458 742.619,387.292 743.5,388C 666.62,433.607 589.287,478.44 511.5,522.5C 472.673,499.918 433.673,477.585 394.5,455.5C 394.158,454.662 393.492,454.328 392.5,454.5C 354.896,432.36 317.23,410.193 279.5,388C 312.368,355.299 345.035,322.465 377.5,289.5C 386.167,281.5 394.5,273.167 402.5,264.5C 414.167,253.5 425.5,242.167 436.5,230.5C 460.941,206.391 485.274,182.391 509.5,158.5C 510.423,157.697 511.423,157.53 512.5,158C 523.035,168.702 533.702,179.202 544.5,189.5 Z M 562.5,315.5 C 562.369,316.239 562.536,316.906 563,317.5C 582.711,336.71 601.878,356.377 620.5,376.5C 604.27,386.776 587.936,396.776 571.5,406.5C 551.517,417.826 531.517,429.159 511.5,440.5C 499.656,434.413 487.99,428.08 476.5,421.5C 469.504,416.666 462.171,412.333 454.5,408.5C 440.866,399.678 426.866,391.344 412.5,383.5C 409.672,381.53 406.672,379.697 403.5,378C 402.549,377.282 402.383,376.449 403,375.5C 432.507,345.134 462.007,314.801 491.5,284.5C 498.146,278.188 504.813,271.855 511.5,265.5C 528.574,282.243 545.574,298.909 562.5,315.5 Z"/></g>
<g><path style="opacity:1" fill="#e9bf4f" d="M 544.5,189.5 C 533.702,179.202 523.035,168.702 512.5,158C 511.423,157.53 510.423,157.697 509.5,158.5C 508.226,157.811 508.226,156.977 509.5,156C 510.5,155.333 511.5,155.333 512.5,156C 524.077,167.059 534.743,178.225 544.5,189.5 Z"/></g>
<g><path style="opacity:1" fill="#ceaf32" d="M 556.5,226.5 C 558.5,227.833 560.167,229.5 561.5,231.5C 586.914,258.416 612.914,284.916 639.5,311C 640.094,311.464 640.761,311.631 641.5,311.5C 665.336,333.667 688.67,356.667 711.5,380.5C 711.92,382.094 712.586,383.594 713.5,385C 713.167,385.5 712.833,386 712.5,386.5C 694.269,396.432 676.603,407.099 659.5,418.5C 659.5,419.167 659.167,419.5 658.5,419.5C 657.749,418.427 656.749,418.26 655.5,419C 643.013,426.655 630.513,434.155 618,441.5C 615.366,440.308 614.532,440.974 615.5,443.5C 593.666,457.254 571.333,470.254 548.5,482.5C 545.422,483.202 542.422,484.202 539.5,485.5C 531.29,490.878 522.957,496.045 514.5,501C 512.833,501.667 511.167,501.667 509.5,501C 505.381,498.274 501.048,496.107 496.5,494.5C 496.047,493.542 495.381,492.708 494.5,492C 486.906,488.065 479.573,483.732 472.5,479C 453.767,467.968 434.767,457.468 415.5,447.5C 400.393,437.437 384.726,428.104 368.5,419.5C 367.893,419.624 367.56,419.957 367.5,420.5C 366.833,420.5 366.5,420.167 366.5,419.5C 364.087,417.113 361.42,414.946 358.5,413C 342.453,404.226 326.62,395.059 311,385.5C 310.333,384.5 310.333,383.5 311,382.5C 312.667,381.167 314.333,379.833 316,378.5C 319.073,374.939 321.906,371.272 324.5,367.5C 324.5,366.833 324.833,366.5 325.5,366.5C 325.369,367.239 325.536,367.906 326,368.5C 341.58,352.517 357.247,336.517 373,320.5C 373.464,319.906 373.631,319.239 373.5,318.5C 379.167,312.167 385.167,306.167 391.5,300.5C 391.369,301.239 391.536,301.906 392,302.5C 430.804,263.696 469.804,224.696 509,185.5C 510.008,185.982 511.175,186.148 512.5,186C 527.792,198.962 541.959,212.795 555,227.5C 555.383,226.944 555.883,226.611 556.5,226.5 Z M 562.5,315.5 C 562.369,316.239 562.536,316.906 563,317.5C 582.711,336.71 601.878,356.377 620.5,376.5C 604.27,386.776 587.936,396.776 571.5,406.5C 551.517,417.826 531.517,429.159 511.5,440.5C 499.656,434.413 487.99,428.08 476.5,421.5C 469.504,416.666 462.171,412.333 454.5,408.5C 440.866,399.678 426.866,391.344 412.5,383.5C 409.672,381.53 406.672,379.697 403.5,378C 402.549,377.282 402.383,376.449 403,375.5C 432.507,345.134 462.007,314.801 491.5,284.5C 498.146,278.188 504.813,271.855 511.5,265.5C 528.574,282.243 545.574,298.909 562.5,315.5 Z"/></g>
<g><path style="opacity:1" fill="#e6bd4d" d="M 556.5,226.5 C 555.883,226.611 555.383,226.944 555,227.5C 541.959,212.795 527.792,198.962 512.5,186C 511.175,186.148 510.008,185.982 509,185.5C 469.804,224.696 430.804,263.696 392,302.5C 391.536,301.906 391.369,301.239 391.5,300.5C 431.452,260.882 471.452,221.215 511.5,181.5C 526.773,196.107 541.773,211.107 556.5,226.5 Z"/></g>
<g><path style="opacity:1" fill="#e5be50" d="M 554.5,199.5 C 555.922,199.709 557.255,200.209 558.5,201C 582.031,224.031 605.031,247.531 627.5,271.5C 603.14,247.473 578.806,223.473 554.5,199.5 Z"/></g>
<g><path style="opacity:1" fill="#e5bf50" d="M 436.5,230.5 C 425.5,242.167 414.167,253.5 402.5,264.5C 412.577,252.92 423.243,241.753 434.5,231C 435.094,230.536 435.761,230.369 436.5,230.5 Z"/></g>
<g><path style="opacity:1" fill="#e6bd4e" d="M 561.5,231.5 C 588.527,257.86 615.194,284.527 641.5,311.5C 640.761,311.631 640.094,311.464 639.5,311C 612.914,284.916 586.914,258.416 561.5,231.5 Z"/></g>
<g><path style="opacity:1" fill="#e6be51" d="M 562.5,315.5 C 545.574,298.909 528.574,282.243 511.5,265.5C 504.813,271.855 498.146,278.188 491.5,284.5C 491.5,283.167 491.5,281.833 491.5,280.5C 495.913,279.256 498.913,276.423 500.5,272C 504.573,269.769 508.24,266.935 511.5,263.5C 529.212,280.212 546.212,297.545 562.5,315.5 Z"/></g>
<g><path style="opacity:1" fill="#e7be51" d="M 627.5,271.5 C 660.239,302.74 692.406,334.407 724,366.5C 729.391,372.227 735.058,377.561 741,382.5C 741.692,383.437 741.525,384.103 740.5,384.5C 702.5,347.167 664.833,309.5 627.5,271.5 Z"/></g>
<g><path style="opacity:1" fill="#e1b94b" d="M 377.5,289.5 C 345.035,322.465 312.368,355.299 279.5,388C 317.23,410.193 354.896,432.36 392.5,454.5C 392.565,454.938 392.399,455.272 392,455.5C 354.005,434.005 316.338,412.005 279,389.5C 278.48,387.711 278.813,386.044 280,384.5C 286.345,376.489 293.679,369.489 302,363.5C 302.483,362.552 302.649,361.552 302.5,360.5C 305.202,358.328 308.202,355.494 311.5,352C 314.755,348.745 318.421,345.079 322.5,341C 323.5,340.667 324.5,340.333 325.5,340C 327.333,335.5 330.5,332.333 335,330.5C 335.483,329.552 335.649,328.552 335.5,327.5C 336.5,327.5 337.5,327.5 338.5,327.5C 345.434,320.046 353.434,311.88 362.5,303C 362.167,302.667 361.833,302.333 361.5,302C 363.5,300 365.5,298 367.5,296C 370.983,294.008 374.316,291.842 377.5,289.5 Z"/></g>
<g><path style="opacity:1" fill="#eabf53" d="M 373.5,318.5 C 373.631,319.239 373.464,319.906 373,320.5C 357.247,336.517 341.58,352.517 326,368.5C 325.536,367.906 325.369,367.239 325.5,366.5C 341.167,350.167 357.167,334.167 373.5,318.5 Z"/></g>
<g><path style="opacity:1" fill="#e6be4f" d="M 562.5,315.5 C 582.88,335.047 602.88,355.214 622.5,376C 622.22,377.395 621.553,378.562 620.5,379.5C 605.702,387.734 591.035,396.234 576.5,405C 574.975,406.009 573.308,406.509 571.5,406.5C 587.936,396.776 604.27,386.776 620.5,376.5C 601.878,356.377 582.711,336.71 563,317.5C 562.536,316.906 562.369,316.239 562.5,315.5 Z"/></g>
<g><path style="opacity:1" fill="#ceae32" d="M 869.5,418.5 C 870.405,419.964 870.405,421.298 869.5,422.5C 750.595,495.872 631.429,568.872 512,641.5C 391.144,568.779 270.977,495.113 151.5,420.5C 159.334,413.746 168,408.246 177.5,404C 179.539,401.626 181.872,399.626 184.5,398C 194.432,392.396 204.099,386.396 213.5,380C 215.025,378.991 216.692,378.491 218.5,378.5C 217.051,382.472 214.551,385.806 211,388.5C 210.781,397.861 210.281,407.194 209.5,416.5C 209.756,417.689 210.089,418.856 210.5,420C 208.882,422.283 206.715,423.783 204,424.5C 203.308,425.437 203.475,426.103 204.5,426.5C 203.833,427.167 203.167,427.833 202.5,428.5C 204.101,430.853 206.101,433.02 208.5,435C 217.697,440.095 226.697,445.428 235.5,451C 237.025,452.009 238.692,452.509 240.5,452.5C 248.341,456.919 256.008,461.585 263.5,466.5C 262.262,466.81 262.262,467.31 263.5,468C 329.798,508.484 396.465,548.318 463.5,587.5C 470.506,591 477.173,595 483.5,599.5C 484.716,601.451 486.382,602.951 488.5,604C 495.498,607.497 502.165,611.497 508.5,616C 510.044,617.187 511.711,617.52 513.5,617C 613.821,556.02 714.154,495.353 814.5,435C 817.641,433.114 820.308,430.78 822.5,428C 819.819,424.907 816.653,422.407 813,420.5C 812.987,407.944 811.82,395.611 809.5,383.5C 806.386,382.909 803.886,381.242 802,378.5C 801.312,377.668 801.479,377.002 802.5,376.5C 825.108,390.291 847.442,404.291 869.5,418.5 Z"/></g>
<g><path style="opacity:1" fill="#eabf54" d="M 711.5,380.5 C 714.711,381.823 715.711,383.99 714.5,387C 696.112,397.524 677.779,408.024 659.5,418.5C 676.603,407.099 694.269,396.432 712.5,386.5C 712.833,386 713.167,385.5 713.5,385C 712.586,383.594 711.92,382.094 711.5,380.5 Z"/></g>
<g><path style="opacity:1" fill="#af8426" d="M 225.5,394.5 C 320.451,450.648 415.784,506.315 511.5,561.5C 606.457,506.462 701.124,450.962 795.5,395C 796.448,394.517 797.448,394.351 798.5,394.5C 798.5,405.167 798.5,415.833 798.5,426.5C 786.757,434.691 774.423,441.858 761.5,448C 757.953,450.384 754.953,453.217 752.5,456.5C 672.653,505.259 592.32,553.259 511.5,600.5C 418.293,545.604 325.626,489.937 233.5,433.5C 233.586,432.504 233.252,431.671 232.5,431C 230.099,430.205 227.932,429.038 226,427.5C 225.5,416.505 225.333,405.505 225.5,394.5 Z"/></g>
<g><path style="opacity:1" fill="#eabe53" d="M 412.5,383.5 C 426.866,391.344 440.866,399.678 454.5,408.5C 440.741,401.257 427.074,393.757 413.5,386C 412.748,385.329 412.414,384.496 412.5,383.5 Z"/></g>
<g><path style="opacity:1" fill="#e8bf55" d="M 324.5,367.5 C 321.906,371.272 319.073,374.939 316,378.5C 314.333,379.833 312.667,381.167 311,382.5C 310.333,383.5 310.333,384.5 311,385.5C 326.62,395.059 342.453,404.226 358.5,413C 361.42,414.946 364.087,417.113 366.5,419.5C 347.221,408.524 327.888,397.524 308.5,386.5C 307.417,385.635 307.251,384.635 308,383.5C 313.369,377.964 318.869,372.63 324.5,367.5 Z"/></g>
<g><path style="opacity:1" fill="#e3bc51" d="M 204.5,426.5 C 203.475,426.103 203.308,425.437 204,424.5C 206.715,423.783 208.882,422.283 210.5,420C 210.089,418.856 209.756,417.689 209.5,416.5C 210.281,407.194 210.781,397.861 211,388.5C 214.551,385.806 217.051,382.472 218.5,378.5C 216.692,378.491 215.025,378.991 213.5,380C 204.099,386.396 194.432,392.396 184.5,398C 181.872,399.626 179.539,401.626 177.5,404C 168,408.246 159.334,413.746 151.5,420.5C 150.5,420.5 149.5,420.5 148.5,420.5C 149.29,419.206 150.29,418.039 151.5,417C 178,400.5 204.5,384 231,367.5C 231.667,368.5 231.667,369.5 231,370.5C 224.301,376.864 217.968,383.531 212,390.5C 211.72,400.51 211.72,410.51 212,420.5C 210.005,423.087 207.505,425.087 204.5,426.5 Z"/></g>
<g><path style="opacity:1" fill="#af8325" d="M 148.5,420.5 C 149.5,420.5 150.5,420.5 151.5,420.5C 270.977,495.113 391.144,568.779 512,641.5C 631.429,568.872 750.595,495.872 869.5,422.5C 870.831,429.803 871.498,437.47 871.5,445.5C 871.333,453.167 871.167,460.833 871,468.5C 862.5,473.667 854,478.833 845.5,484C 846.094,484.464 846.761,484.631 847.5,484.5C 847.158,485.338 846.492,485.672 845.5,485.5C 835.854,489.447 826.854,494.614 818.5,501C 814.04,501.297 811.04,503.463 809.5,507.5C 804.709,511.068 799.709,514.402 794.5,517.5C 794.44,516.957 794.107,516.624 793.5,516.5C 782.847,521.799 772.847,527.965 763.5,535C 757.098,538.192 751.098,541.859 745.5,546C 735.709,552.067 725.709,557.9 715.5,563.5C 714.45,564.429 714.45,565.095 715.5,565.5C 689.843,581.998 663.843,597.998 637.5,613.5C 634.309,614.092 631.309,615.259 628.5,617C 619.816,623.505 610.483,628.672 600.5,632.5C 600.5,633.5 600.5,634.5 600.5,635.5C 599.448,635.351 598.448,635.517 597.5,636C 578.535,648.488 559.202,660.488 539.5,672C 540.094,672.464 540.761,672.631 541.5,672.5C 538.76,674.56 535.76,676.226 532.5,677.5C 525.402,680.883 518.402,684.55 511.5,688.5C 504.038,684.266 496.704,679.766 489.5,675C 487.975,673.991 486.308,673.491 484.5,673.5C 462.324,660.916 440.657,647.583 419.5,633.5C 417.157,631.132 414.491,628.965 411.5,627C 383.962,611.071 356.962,594.405 330.5,577C 325.265,574.215 319.932,571.715 314.5,569.5C 276.824,546.998 239.491,523.998 202.5,500.5C 199.571,498.018 196.571,495.518 193.5,493C 194.672,492.581 195.672,491.915 196.5,491C 193.867,491.253 191.2,491.253 188.5,491C 185.894,487.072 182.227,484.906 177.5,484.5C 177.5,483.5 177.5,482.5 177.5,481.5C 174.757,480.612 172.09,479.445 169.5,478C 168.874,477.25 168.374,476.416 168,475.5C 164.908,477.182 162.741,476.349 161.5,473C 156.134,471.634 152.801,468.301 151.5,463C 151.748,461.284 152.415,459.784 153.5,458.5C 151.669,447.006 150.502,435.34 150,423.5C 149.83,434.341 149.33,445.008 148.5,455.5C 148.5,443.833 148.5,432.167 148.5,420.5 Z"/></g>
<g><path style="opacity:1" fill="#ca9d37" d="M 225.5,394.5 C 225.333,405.505 225.5,416.505 226,427.5C 227.932,429.038 230.099,430.205 232.5,431C 233.252,431.671 233.586,432.504 233.5,433.5C 229.516,432.26 226.349,429.926 224,426.5C 223.5,416.839 223.334,407.172 223.5,397.5C 224.167,396.5 224.833,395.5 225.5,394.5 Z"/></g>
<g><path style="opacity:1" fill="#e8be52" d="M 367.5,420.5 C 367.56,419.957 367.893,419.624 368.5,419.5C 384.726,428.104 400.393,437.437 415.5,447.5C 399.204,439.019 383.204,430.019 367.5,420.5 Z"/></g>
<g><path style="opacity:1" fill="#c19937" d="M 798.5,426.5 C 798.439,428.592 797.439,430.092 795.5,431C 781.139,439.511 766.806,448.011 752.5,456.5C 754.953,453.217 757.953,450.384 761.5,448C 774.423,441.858 786.757,434.691 798.5,426.5 Z"/></g>
<g><path style="opacity:1" fill="#bd9535" d="M 869.5,418.5 C 870.605,419.6 871.938,420.267 873.5,420.5C 873.833,436.847 873.499,453.18 872.5,469.5C 864.305,474.763 855.971,479.763 847.5,484.5C 846.761,484.631 846.094,484.464 845.5,484C 854,478.833 862.5,473.667 871,468.5C 871.167,460.833 871.333,453.167 871.5,445.5C 871.498,437.47 870.831,429.803 869.5,422.5C 870.405,421.298 870.405,419.964 869.5,418.5 Z"/></g>
<g><path style="opacity:1" fill="#e9c054" d="M 571.5,406.5 C 552.189,419.496 532.189,431.496 511.5,442.5C 499.343,436.257 487.676,429.257 476.5,421.5C 487.99,428.08 499.656,434.413 511.5,440.5C 531.517,429.159 551.517,417.826 571.5,406.5 Z"/></g>
<g><path style="opacity:1" fill="#ceae32" d="M 130.5,467.5 C 130.167,468.167 129.833,468.833 129.5,469.5C 129.414,470.496 129.748,471.329 130.5,472C 158.099,488.604 185.432,505.604 212.5,523C 213.793,523.49 215.127,523.657 216.5,523.5C 216.414,524.496 216.748,525.329 217.5,526C 236.417,537.374 255.25,548.874 274,560.5C 274.399,560.272 274.565,559.938 274.5,559.5C 275.492,559.328 276.158,559.662 276.5,560.5C 275.262,560.81 275.262,561.31 276.5,562C 307.768,581.307 339.101,600.641 370.5,620C 372.65,621.411 374.984,622.245 377.5,622.5C 377.414,623.496 377.748,624.329 378.5,625C 398.41,636.571 418.077,648.571 437.5,661C 440.064,662.396 442.731,663.563 445.5,664.5C 455.365,669.38 464.698,675.047 473.5,681.5C 473.062,681.435 472.728,681.601 472.5,682C 479.702,687.524 487.202,692.691 495,697.5C 495.333,697.167 495.667,696.833 496,696.5C 500.584,699.208 505.084,702.042 509.5,705C 511.971,705.706 514.305,705.373 516.5,704C 641.917,626.634 767.25,549.3 892.5,472C 894.255,471.28 895.089,470.113 895,468.5C 892.591,466.38 890.091,464.38 887.5,462.5C 886.167,454.167 886.167,445.833 887.5,437.5C 893.152,440.666 898.652,444 904,447.5C 904.399,447.272 904.565,446.938 904.5,446.5C 905.492,446.328 906.158,446.662 906.5,447.5C 906.062,447.435 905.728,447.601 905.5,448C 912.462,453.154 919.795,457.82 927.5,462C 931.597,464.37 935.264,467.203 938.5,470.5C 796.717,560.598 654.383,649.931 511.5,738.5C 368.462,650.99 226.462,561.99 85.5,471.5C 85.5,470.833 85.1667,470.5 84.5,470.5C 88.8515,466.798 93.5182,463.298 98.5,460C 110.335,452.917 122.002,445.583 133.5,438C 134.448,437.517 135.448,437.351 136.5,437.5C 136.666,445.84 136.5,454.173 136,462.5C 134.167,463.667 132.333,464.833 130.5,466C 129.262,466.69 129.262,467.19 130.5,467.5 Z"/></g>
<g><path style="opacity:1" fill="#e6bd4f" d="M 658.5,419.5 C 644.301,427.766 629.968,435.766 615.5,443.5C 614.532,440.974 615.366,440.308 618,441.5C 630.513,434.155 643.013,426.655 655.5,419C 656.749,418.26 657.749,418.427 658.5,419.5 Z"/></g>
<g><path style="opacity:1" fill="#b79033" d="M 202.5,500.5 C 184.891,490.693 167.558,480.36 150.5,469.5C 149.749,468.624 149.249,467.624 149,466.5C 148.501,462.848 148.335,459.182 148.5,455.5C 149.33,445.008 149.83,434.341 150,423.5C 150.502,435.34 151.669,447.006 153.5,458.5C 152.415,459.784 151.748,461.284 151.5,463C 152.801,468.301 156.134,471.634 161.5,473C 162.741,476.349 164.908,477.182 168,475.5C 168.374,476.416 168.874,477.25 169.5,478C 172.09,479.445 174.757,480.612 177.5,481.5C 177.5,482.5 177.5,483.5 177.5,484.5C 182.227,484.906 185.894,487.072 188.5,491C 191.2,491.253 193.867,491.253 196.5,491C 195.672,491.915 194.672,492.581 193.5,493C 196.571,495.518 199.571,498.018 202.5,500.5 Z"/></g>
<g><path style="opacity:1" fill="#e4ba53" d="M 202.5,428.5 C 215.203,436.514 227.87,444.514 240.5,452.5C 238.692,452.509 237.025,452.009 235.5,451C 226.697,445.428 217.697,440.095 208.5,435C 206.101,433.02 204.101,430.853 202.5,428.5 Z"/></g>
<g><path style="opacity:1" fill="#e2bb52" d="M 130.5,467.5 C 129.262,467.19 129.262,466.69 130.5,466C 132.333,464.833 134.167,463.667 136,462.5C 136.5,454.173 136.666,445.84 136.5,437.5C 135.448,437.351 134.448,437.517 133.5,438C 122.002,445.583 110.335,452.917 98.5,460C 93.5182,463.298 88.8515,466.798 84.5,470.5C 83.8333,470.5 83.1667,470.5 82.5,470.5C 82.5106,468.983 83.1772,467.816 84.5,467C 101.002,456.917 117.336,446.583 133.5,436C 135.025,434.991 136.692,434.491 138.5,434.5C 138.666,443.839 138.5,453.173 138,462.5C 135.872,464.808 133.372,466.474 130.5,467.5 Z"/></g>
<g><path style="opacity:1" fill="#e7bd52" d="M 906.5,447.5 C 917.615,454.109 928.615,460.942 939.5,468C 940.252,468.671 940.586,469.504 940.5,470.5C 939.833,470.5 939.167,470.5 938.5,470.5C 935.264,467.203 931.597,464.37 927.5,462C 919.795,457.82 912.462,453.154 905.5,448C 905.728,447.601 906.062,447.435 906.5,447.5 Z"/></g>
<g><path style="opacity:1" fill="#e8be55" d="M 415.5,447.5 C 434.767,457.468 453.767,467.968 472.5,479C 479.573,483.732 486.906,488.065 494.5,492C 495.381,492.708 496.047,493.542 496.5,494.5C 469.001,479.587 442.001,463.921 415.5,447.5 Z"/></g>
<g><path style="opacity:1" fill="#af8325" d="M 938.5,470.5 C 939.167,470.5 939.833,470.5 940.5,470.5C 940.667,488.17 940.5,505.836 940,523.5C 930.387,529.386 920.887,535.386 911.5,541.5C 910.279,540.535 908.946,540.702 907.5,542C 885.054,556.799 862.387,571.132 839.5,585C 838.29,586.039 837.29,587.206 836.5,588.5C 738.683,651.913 640.349,714.579 541.5,776.5C 539.692,776.491 538.025,776.991 536.5,778C 528.57,783.608 520.403,788.775 512,793.5C 505.324,789.414 498.491,785.747 491.5,782.5C 439.82,750.33 388.487,717.663 337.5,684.5C 335.906,683.017 334.24,681.517 332.5,680C 309.226,665.719 286.226,651.053 263.5,636C 260.242,634.202 256.909,632.702 253.5,631.5C 221.894,611.887 190.56,591.887 159.5,571.5C 155.572,568.087 151.405,564.754 147,561.5C 126.077,548.911 105.41,535.911 85,522.5C 83.7203,506.515 83.2203,490.515 83.5,474.5C 83.6399,472.97 84.3065,471.97 85.5,471.5C 226.462,561.99 368.462,650.99 511.5,738.5C 654.383,649.931 796.717,560.598 938.5,470.5 Z"/></g>
<g><path style="opacity:1" fill="#e4bb53" d="M 263.5,466.5 C 330.507,506.334 397.174,546.667 463.5,587.5C 396.465,548.318 329.798,508.484 263.5,468C 262.262,467.31 262.262,466.81 263.5,466.5 Z"/></g>
<g><path style="opacity:1" fill="#e4bc55" d="M 873.5,420.5 C 871.938,420.267 870.605,419.6 869.5,418.5C 847.442,404.291 825.108,390.291 802.5,376.5C 801.479,377.002 801.312,377.668 802,378.5C 803.886,381.242 806.386,382.909 809.5,383.5C 811.82,395.611 812.987,407.944 813,420.5C 816.653,422.407 819.819,424.907 822.5,428C 820.308,430.78 817.641,433.114 814.5,435C 714.154,495.353 613.821,556.02 513.5,617C 511.711,617.52 510.044,617.187 508.5,616C 502.165,611.497 495.498,607.497 488.5,604C 486.382,602.951 484.716,601.451 483.5,599.5C 493.057,604.378 502.39,609.711 511.5,615.5C 615,553.251 718.333,490.751 821.5,428C 817.916,425.959 814.416,423.792 811,421.5C 810.667,410.833 810.333,400.167 810,389.5C 805.7,384.199 801.034,379.199 796,374.5C 795.219,373.056 795.386,371.723 796.5,370.5C 821.966,386.135 847.3,401.969 872.5,418C 873.252,418.671 873.586,419.504 873.5,420.5 Z"/></g>
<g><path style="opacity:1" fill="#c19939" d="M 845.5,485.5 C 833.842,493.332 821.842,500.665 809.5,507.5C 811.04,503.463 814.04,501.297 818.5,501C 826.854,494.614 835.854,489.447 845.5,485.5 Z"/></g>
<g><path style="opacity:1" fill="#ceae32" d="M 87.5,540.5 C 94.77,544.445 101.77,548.778 108.5,553.5C 113.002,557.777 118.002,561.611 123.5,565C 173.772,596.638 223.772,628.638 273.5,661C 275.025,662.009 276.692,662.509 278.5,662.5C 299.458,675.473 320.125,688.806 340.5,702.5C 356.929,713.891 373.595,725.058 390.5,736C 391.793,736.49 393.127,736.657 394.5,736.5C 398.372,738.597 402.039,740.931 405.5,743.5C 405.414,744.496 405.748,745.329 406.5,746C 438.336,766.084 470.003,786.417 501.5,807C 502.448,807.483 503.448,807.649 504.5,807.5C 505.492,807.328 506.158,807.662 506.5,808.5C 506.062,808.435 505.728,808.601 505.5,809C 507.811,811.164 510.478,812.164 513.5,812C 522.341,806.08 531.341,800.413 540.5,795C 542.763,793.383 544.763,791.55 546.5,789.5C 554.986,783.086 563.986,777.42 573.5,772.5C 699.848,692.662 825.848,612.329 951.5,531.5C 951.833,529.333 952.167,527.167 952.5,525C 952.672,521.523 952.006,518.356 950.5,515.5C 950.5,514.5 950.5,513.5 950.5,512.5C 952.143,506.217 953.143,499.55 953.5,492.5C 972.032,503.595 990.365,514.928 1008.5,526.5C 842.691,635.241 677.024,744.241 511.5,853.5C 356.969,751.803 202.302,650.303 47.5,549C 36.5916,541.724 25.9249,534.224 15.5,526.5C 32.6767,514.317 50.51,502.984 69,492.5C 70.2952,505.072 70.9619,517.738 71,530.5C 75.9735,534.735 81.4735,538.069 87.5,540.5 Z"/></g>
<g><path style="opacity:1" fill="#e7be54" d="M 741.5,385.5 C 743.196,385.685 744.529,386.519 745.5,388C 668.366,434.688 590.366,480.188 511.5,524.5C 472.04,501.935 432.707,479.102 393.5,456C 393.728,455.601 394.062,455.435 394.5,455.5C 433.673,477.585 472.673,499.918 511.5,522.5C 589.287,478.44 666.62,433.607 743.5,388C 742.619,387.292 741.953,386.458 741.5,385.5 Z"/></g>
<g><path style="opacity:1" fill="#e4bc52" d="M 129.5,469.5 C 158.522,487.534 187.522,505.534 216.5,523.5C 215.127,523.657 213.793,523.49 212.5,523C 185.432,505.604 158.099,488.604 130.5,472C 129.748,471.329 129.414,470.496 129.5,469.5 Z"/></g>
<g><path style="opacity:1" fill="#e8c055" d="M 548.5,482.5 C 536.439,489.874 524.106,496.874 511.5,503.5C 506.222,500.873 501.222,497.873 496.5,494.5C 501.048,496.107 505.381,498.274 509.5,501C 511.167,501.667 512.833,501.667 514.5,501C 522.957,496.045 531.29,490.878 539.5,485.5C 542.422,484.202 545.422,483.202 548.5,482.5 Z"/></g>
<g><path style="opacity:1" fill="#e2ba53" d="M 1010.5,527.5 C 1009.83,527.167 1009.17,526.833 1008.5,526.5C 990.365,514.928 972.032,503.595 953.5,492.5C 953.143,499.55 952.143,506.217 950.5,512.5C 950.5,505.167 950.5,497.833 950.5,490.5C 952.655,490.372 954.655,490.872 956.5,492C 972.666,502.251 989,512.251 1005.5,522C 1008.08,523.076 1009.75,524.909 1010.5,527.5 Z"/></g>
<g><path style="opacity:1" fill="#bf9639" d="M 794.5,517.5 C 768.305,533.762 741.972,549.762 715.5,565.5C 714.45,565.095 714.45,564.429 715.5,563.5C 725.709,557.9 735.709,552.067 745.5,546C 751.098,541.859 757.098,538.192 763.5,535C 772.847,527.965 782.847,521.799 793.5,516.5C 794.107,516.624 794.44,516.957 794.5,517.5 Z"/></g>
<g><path style="opacity:1" fill="#af8325" d="M 15.5,526.5 C 25.9249,534.224 36.5916,541.724 47.5,549C 202.302,650.303 356.969,751.803 511.5,853.5C 677.024,744.241 842.691,635.241 1008.5,526.5C 1009.17,526.833 1009.83,527.167 1010.5,527.5C 1010.67,546.836 1010.5,566.17 1010,585.5C 977.618,607.389 945.118,629.055 912.5,650.5C 912.103,649.475 911.437,649.308 910.5,650C 900.493,657.086 890.16,663.419 879.5,669C 872.868,673.304 866.535,677.971 860.5,683C 861.094,683.464 861.761,683.631 862.5,683.5C 746.042,762.235 629.042,840.235 511.5,917.5C 376.302,827.739 241.302,737.739 106.5,647.5C 106.938,647.565 107.272,647.399 107.5,647C 103.696,643.19 99.3631,640.19 94.5,638C 92.3751,634.704 89.3751,632.87 85.5,632.5C 75.2625,624.255 64.2625,617.255 52.5,611.5C 38.9626,603.475 25.7959,594.808 13,585.5C 12.5,566.17 12.3334,546.836 12.5,527.5C 13.391,526.89 14.391,526.557 15.5,526.5 Z"/></g>
<g><path style="opacity:1" fill="#e6b951" d="M 87.5,540.5 C 81.4735,538.069 75.9735,534.735 71,530.5C 70.9619,517.738 70.2952,505.072 69,492.5C 50.51,502.984 32.6767,514.317 15.5,526.5C 14.391,526.557 13.391,526.89 12.5,527.5C 13.2543,524.909 14.921,523.076 17.5,522C 35.1667,511.167 52.8333,500.333 70.5,489.5C 71.4147,490.328 72.0814,491.328 72.5,492.5C 71.8839,495.11 71.5505,497.777 71.5,500.5C 72.1301,510.493 72.6301,520.493 73,530.5C 78.2874,533.306 83.1207,536.64 87.5,540.5 Z"/></g>
<g><path style="opacity:1" fill="#e4bb53" d="M 904.5,446.5 C 904.565,446.938 904.399,447.272 904,447.5C 898.652,444 893.152,440.666 887.5,437.5C 886.167,445.833 886.167,454.167 887.5,462.5C 890.091,464.38 892.591,466.38 895,468.5C 895.089,470.113 894.255,471.28 892.5,472C 767.25,549.3 641.917,626.634 516.5,704C 514.305,705.373 511.971,705.706 509.5,705C 505.084,702.042 500.584,699.208 496,696.5C 495.667,696.833 495.333,697.167 495,697.5C 487.202,692.691 479.702,687.524 472.5,682C 472.728,681.601 473.062,681.435 473.5,681.5C 486.526,688.766 499.359,696.433 512,704.5C 639.585,626.627 766.752,548.127 893.5,469C 890.577,466.955 887.743,464.788 885,462.5C 884.5,453.173 884.334,443.839 884.5,434.5C 891.794,437.479 898.46,441.479 904.5,446.5 Z"/></g>
<g><path style="opacity:1" fill="#be9537" d="M 82.5,470.5 C 83.1667,470.5 83.8333,470.5 84.5,470.5C 85.1667,470.5 85.5,470.833 85.5,471.5C 84.3065,471.97 83.6399,472.97 83.5,474.5C 83.2203,490.515 83.7203,506.515 85,522.5C 105.41,535.911 126.077,548.911 147,561.5C 151.405,564.754 155.572,568.087 159.5,571.5C 133.935,555.948 108.601,539.948 83.5,523.5C 82.5005,505.846 82.1671,488.179 82.5,470.5 Z"/></g>
<g><path style="opacity:1" fill="#e4bc53" d="M 216.5,523.5 C 236.205,535.013 255.538,547.013 274.5,559.5C 274.565,559.938 274.399,560.272 274,560.5C 255.25,548.874 236.417,537.374 217.5,526C 216.748,525.329 216.414,524.496 216.5,523.5 Z"/></g>
<g><path style="opacity:1" fill="#c09739" d="M 911.5,541.5 C 886.64,557.428 861.64,573.094 836.5,588.5C 837.29,587.206 838.29,586.039 839.5,585C 862.387,571.132 885.054,556.799 907.5,542C 908.946,540.702 910.279,540.535 911.5,541.5 Z"/></g>
<g><path style="opacity:1" fill="#e4bb51" d="M 276.5,560.5 C 310.37,580.93 344.036,601.597 377.5,622.5C 374.984,622.245 372.65,621.411 370.5,620C 339.101,600.641 307.768,581.307 276.5,562C 275.262,561.31 275.262,560.81 276.5,560.5 Z"/></g>
<g><path style="opacity:1" fill="#c09736" d="M 314.5,569.5 C 319.932,571.715 325.265,574.215 330.5,577C 356.962,594.405 383.962,611.071 411.5,627C 414.491,628.965 417.157,631.132 419.5,633.5C 383.992,612.917 348.992,591.583 314.5,569.5 Z"/></g>
<g><path style="opacity:1" fill="#bf9635" d="M 52.5,611.5 C 64.2625,617.255 75.2625,624.255 85.5,632.5C 89.3751,632.87 92.3751,634.704 94.5,638C 99.3631,640.19 103.696,643.19 107.5,647C 107.272,647.399 106.938,647.565 106.5,647.5C 88.1191,635.983 70.1191,623.983 52.5,611.5 Z"/></g>
<g><path style="opacity:1" fill="#e4bb51" d="M 108.5,553.5 C 165.542,589.348 222.209,625.681 278.5,662.5C 276.692,662.509 275.025,662.009 273.5,661C 223.772,628.638 173.772,596.638 123.5,565C 118.002,561.611 113.002,557.777 108.5,553.5 Z"/></g>
<g><path style="opacity:1" fill="#c29938" d="M 637.5,613.5 C 605.536,633.152 573.536,652.819 541.5,672.5C 540.761,672.631 540.094,672.464 539.5,672C 559.202,660.488 578.535,648.488 597.5,636C 598.448,635.517 599.448,635.351 600.5,635.5C 600.5,634.5 600.5,633.5 600.5,632.5C 610.483,628.672 619.816,623.505 628.5,617C 631.309,615.259 634.309,614.092 637.5,613.5 Z"/></g>
<g><path style="opacity:1" fill="#e6bc4e" d="M 377.5,622.5 C 400.538,636.013 423.204,650.013 445.5,664.5C 442.731,663.563 440.064,662.396 437.5,661C 418.077,648.571 398.41,636.571 378.5,625C 377.748,624.329 377.414,623.496 377.5,622.5 Z"/></g>
<g><path style="opacity:1" fill="#bd9536" d="M 912.5,650.5 C 895.87,661.487 879.203,672.487 862.5,683.5C 861.761,683.631 861.094,683.464 860.5,683C 866.535,677.971 872.868,673.304 879.5,669C 890.16,663.419 900.493,657.086 910.5,650C 911.437,649.308 912.103,649.475 912.5,650.5 Z"/></g>
<g><path style="opacity:1" fill="#e4bb51" d="M 950.5,515.5 C 952.006,518.356 952.672,521.523 952.5,525C 952.167,527.167 951.833,529.333 951.5,531.5C 825.848,612.329 699.848,692.662 573.5,772.5C 698.524,691.499 823.858,610.833 949.5,530.5C 950.494,525.544 950.827,520.544 950.5,515.5 Z"/></g>
<g><path style="opacity:1" fill="#a88324" d="M 209.5,666.5 C 212.572,669.876 216.239,672.542 220.5,674.5C 220.833,675.167 221.167,675.833 221.5,676.5C 219.861,677.916 219.027,679.583 219,681.5C 220,680.5 221,679.5 222,678.5C 224.381,679.435 226.881,679.768 229.5,679.5C 230.371,682.062 230.371,684.728 229.5,687.5C 232.167,687.5 234.833,687.5 237.5,687.5C 237.92,689.674 237.92,691.674 237.5,693.5C 238.025,694.192 238.692,694.692 239.5,695C 244.635,694.92 249.469,695.753 254,697.5C 258.56,693.938 263.393,693.605 268.5,696.5C 267.975,697.192 267.308,697.692 266.5,698C 268.784,699.363 268.951,700.863 267,702.5C 266.085,701.672 265.419,700.672 265,699.5C 264,702.167 263,702.167 262,699.5C 261.683,701.301 261.016,701.634 260,700.5C 259.316,701.784 259.483,702.951 260.5,704C 259.333,704.5 258.5,705.333 258,706.5C 256.887,705.289 255.72,705.289 254.5,706.5C 254.06,705.302 253.727,704.135 253.5,703C 251.109,702.713 248.776,702.213 246.5,701.5C 238.556,702.469 230.556,702.802 222.5,702.5C 222.5,699.833 222.5,697.167 222.5,694.5C 223.5,694.5 224.5,694.5 225.5,694.5C 225.221,690.948 224.555,687.781 223.5,685C 217.649,683.775 217.316,684.775 222.5,688C 219.776,689.335 217.11,689.502 214.5,688.5C 213.833,686.5 213.167,684.5 212.5,682.5C 214.446,682.807 216.113,682.807 217.5,682.5C 216.066,680.78 215.233,678.78 215,676.5C 213.629,676.243 212.129,676.577 210.5,677.5C 209.263,677.444 208.263,676.944 207.5,676C 211.582,673.371 211.248,671.204 206.5,669.5C 207.34,668.265 208.34,667.265 209.5,666.5 Z"/></g>
<g><path style="opacity:1" fill="#a88324" d="M 625.5,672.5 C 630.305,671.513 635.305,671.179 640.5,671.5C 640.292,673.92 640.626,676.253 641.5,678.5C 643.833,679.167 646.167,679.833 648.5,680.5C 644.97,682.49 645.303,683.323 649.5,683C 648.663,684.011 648.33,685.178 648.5,686.5C 646.167,686.5 643.833,686.5 641.5,686.5C 642.335,693.328 639.335,695.994 632.5,694.5C 630.167,694.333 627.833,694.167 625.5,694C 627.957,692.488 627.957,691.154 625.5,690C 625.833,689.667 626.167,689.333 626.5,689C 625.809,687.933 625.309,686.766 625,685.5C 622.868,686.78 620.702,686.78 618.5,685.5C 617.516,688.428 617.183,691.428 617.5,694.5C 610.695,695.327 608.695,692.827 611.5,687C 610.663,685.989 610.33,684.822 610.5,683.5C 612.857,683.663 615.19,683.497 617.5,683C 618.167,682 618.833,681 619.5,680C 624.897,680.302 626.897,677.802 625.5,672.5 Z"/></g>
<g><path style="opacity:1" fill="#c29939" d="M 253.5,631.5 C 256.909,632.702 260.242,634.202 263.5,636C 286.226,651.053 309.226,665.719 332.5,680C 334.24,681.517 335.906,683.017 337.5,684.5C 309.154,667.33 281.154,649.664 253.5,631.5 Z"/></g>
<g><path style="opacity:1" fill="#c79c38" d="M 484.5,673.5 C 486.308,673.491 487.975,673.991 489.5,675C 496.704,679.766 504.038,684.266 511.5,688.5C 518.402,684.55 525.402,680.883 532.5,677.5C 526.137,682.44 519.304,686.773 512,690.5C 502.534,685.191 493.368,679.524 484.5,673.5 Z"/></g>
<g><path style="opacity:1" fill="#e5bc4f" d="M 340.5,702.5 C 358.845,713.336 376.845,724.67 394.5,736.5C 393.127,736.657 391.793,736.49 390.5,736C 373.595,725.058 356.929,713.891 340.5,702.5 Z"/></g>
<g><path style="opacity:1" fill="#a88324" d="M 674.5,757.5 C 679.017,757.652 683.683,758.318 688.5,759.5C 688.755,761.343 688.922,763.343 689,765.5C 690.356,766.38 691.856,766.714 693.5,766.5C 693.326,768.861 692.993,771.194 692.5,773.5C 691.448,773.649 690.448,773.483 689.5,773C 690.451,772.282 690.617,771.449 690,770.5C 688.727,772.572 686.893,773.905 684.5,774.5C 682.383,773.468 680.217,773.468 678,774.5C 676.289,774.561 674.956,773.894 674,772.5C 672.5,775.133 672.333,777.8 673.5,780.5C 670.914,781.48 668.247,781.813 665.5,781.5C 665.666,775.824 665.499,770.157 665,764.5C 663.43,765.358 661.763,766.025 660,766.5C 658.72,766.387 657.887,765.72 657.5,764.5C 659.966,764.35 662.632,764.017 665.5,763.5C 665.5,761.833 665.5,760.167 665.5,758.5C 668.713,758.81 671.713,758.477 674.5,757.5 Z"/></g>
<g><path style="opacity:1" fill="#e4bb4e" d="M 405.5,743.5 C 438.707,764.598 471.707,785.931 504.5,807.5C 503.448,807.649 502.448,807.483 501.5,807C 470.003,786.417 438.336,766.084 406.5,746C 405.748,745.329 405.414,744.496 405.5,743.5 Z"/></g>
<g><path style="opacity:1" fill="#c79b39" d="M 541.5,776.5 C 531.864,783.323 521.864,789.656 511.5,795.5C 504.466,791.655 497.799,787.322 491.5,782.5C 498.491,785.747 505.324,789.414 512,793.5C 520.403,788.775 528.57,783.608 536.5,778C 538.025,776.991 539.692,776.491 541.5,776.5 Z"/></g>
<g><path style="opacity:1" fill="#a88324" d="M 625.5,789.5 C 630.496,789.508 635.496,789.508 640.5,789.5C 641.48,792.086 641.813,794.753 641.5,797.5C 638.833,797.5 636.167,797.5 633.5,797.5C 633.5,800.167 633.5,802.833 633.5,805.5C 630.833,805.5 628.167,805.5 625.5,805.5C 625.5,808.167 625.5,810.833 625.5,813.5C 617.804,813.831 610.138,813.497 602.5,812.5C 602.08,810.674 602.08,808.674 602.5,806.5C 604.862,805.643 607.196,805.309 609.5,805.5C 609.602,802.346 609.602,799.18 609.5,796C 611.23,794.148 612.396,794.314 613,796.5C 614.53,795.08 616.363,794.08 618.5,793.5C 617.359,792.575 617.359,791.741 618.5,791C 621.036,790.814 623.369,790.314 625.5,789.5 Z"/></g>
<g><path style="opacity:1" fill="#e5bd4e" d="M 546.5,789.5 C 544.763,791.55 542.763,793.383 540.5,795C 531.341,800.413 522.341,806.08 513.5,812C 510.478,812.164 507.811,811.164 505.5,809C 505.728,808.601 506.062,808.435 506.5,808.5C 508.571,810.1 510.905,810.6 513.5,810C 524.402,802.915 535.402,796.082 546.5,789.5 Z"/></g>
</svg>
